<mxfile host="65bd71144e">
    <diagram id="n7lAmwq_oMErxqxotGyK" name="Page-1">
        <mxGraphModel dx="376" dy="659" grid="1" gridSize="10" guides="1" tooltips="1" connect="1" arrows="1" fold="1" page="1" pageScale="1" pageWidth="850" pageHeight="1100" math="0" shadow="0">
            <root>
                <mxCell id="0"/>
                <mxCell id="1" parent="0"/>
                <mxCell id="2" value="User" style="rounded=0;whiteSpace=wrap;html=1;" vertex="1" parent="1">
                    <mxGeometry x="365" y="40" width="120" height="60" as="geometry"/>
                </mxCell>
                <mxCell id="3" value="Landing Page" style="rounded=0;whiteSpace=wrap;html=1;" vertex="1" parent="1">
                    <mxGeometry x="365" y="150" width="120" height="60" as="geometry"/>
                </mxCell>
                <mxCell id="4" value="Sign In" style="rounded=0;whiteSpace=wrap;html=1;" vertex="1" parent="1">
                    <mxGeometry x="365" y="270" width="120" height="60" as="geometry"/>
                </mxCell>
                <mxCell id="5" value="Credentials&lt;br&gt;Correct" style="rhombus;whiteSpace=wrap;html=1;rotation=0;" vertex="1" parent="1">
                    <mxGeometry x="375" y="380" width="100" height="100" as="geometry"/>
                </mxCell>
                <mxCell id="6" value="Admin Dashboard" style="rounded=0;whiteSpace=wrap;html=1;" vertex="1" parent="1">
                    <mxGeometry x="365" y="530" width="120" height="60" as="geometry"/>
                </mxCell>
                <mxCell id="7" value="Users" style="rounded=0;whiteSpace=wrap;html=1;" vertex="1" parent="1">
                    <mxGeometry x="365" y="650" width="120" height="60" as="geometry"/>
                </mxCell>
                <mxCell id="8" value="Accepting &amp;amp; Deleting User request of Policy&amp;nbsp;" style="rounded=0;whiteSpace=wrap;html=1;" vertex="1" parent="1">
                    <mxGeometry x="365" y="760" width="120" height="60" as="geometry"/>
                </mxCell>
                <mxCell id="9" value="Claim" style="rounded=0;whiteSpace=wrap;html=1;" vertex="1" parent="1">
                    <mxGeometry x="365" y="860" width="120" height="60" as="geometry"/>
                </mxCell>
            </root>
        </mxGraphModel>
    </diagram>
</mxfile>